For this episode 4 different encodes are being made available. Maybe it will help to see what is preferred based upon what gets more seeders and based upon comments.

If some of these encodes are not popular, they may be deleted after a few days.

All 4 different encodes of this episode can be found here:
 
http://thepiratebay.se/tag/Doomsday+Preppers+S02E15


General
Complete name                    : Doomsday.Preppers.S02E15.A.Fortress.at.Sea.HDTV.XviD-k3n.avi
Format                           : AVI
Format/Info                      : Audio Video Interleave
File size                        : 349 MiB
Duration                         : 45mn 9s
Overall bit rate                 : 1 082 Kbps
Writing library                  : TMPGEnc 4.0 XPress Version. 4.6.3.268

Video
ID                               : 0
Format                           : MPEG-4 Visual
Format profile                   : Advanced Simple@L5
Format settings, BVOP            : 1
Format settings, QPel            : No
Format settings, GMC             : No warppoints
Format settings, Matrix          : Default (H.263)
Muxing mode                      : Packed bitstream
Codec ID                         : XVID
Codec ID/Hint                    : XviD
Duration                         : 45mn 9s
Bit rate                         : 970 Kbps
Width                            : 640 pixels
Height                           : 352 pixels
Display aspect ratio             : 16:9
Frame rate                       : 29.970 fps
Color space                      : YUV
Chroma subsampling               : 4:2:0
Bit depth                        : 8 bits
Scan type                        : Progressive
Compression mode                 : Lossy
Bits/(Pixel*Frame)               : 0.144
Stream size                      : 313 MiB (90%)
Writing library                  : XviD 1.2.0.dev47 (UTC 2006-11-01)

Audio
ID                               : 1
Format                           : MPEG Audio
Format version                   : Version 1
Format profile                   : Layer 3
Mode                             : Joint stereo
Mode extension                   : MS Stereo
Codec ID                         : 55
Codec ID/Hint                    : MP3
Duration                         : 45mn 9s
Bit rate mode                    : Constant
Bit rate                         : 96.0 Kbps
Channel(s)                       : 2 channels
Sampling rate                    : 44.1 KHz
Compression mode                 : Lossy
Stream size                      : 31.0 MiB (9%)
Alignment                        : Aligned on interleaves
Interleave, duration             : 34 ms (1.01 video frame)
Interleave, preload duration     : 418 ms
